<?xml version="1.0" standalone="no"?>
<!DOCTYPE svg PUBLIC "-//W3C//DTD SVG 20010904//EN"
 "http://www.w3.org/TR/2001/REC-SVG-20010904/DTD/svg10.dtd">
<svg version="1.0" xmlns="http://www.w3.org/2000/svg"
 width="1024.000000pt" height="569.000000pt" viewBox="0 0 1024.000000 569.000000"
 preserveAspectRatio="xMidYMid meet">

<g transform="translate(0.000000,569.000000) scale(0.100000,-0.100000)"
fill="#000000" stroke="none">
<path d="M0 4160 l0 -1530 5120 0 5120 0 0 215 0 215 -2577 0 c-1418 1 -2740
2 -2938 3 l-360 2 -3 218 -2 217 2940 0 2940 0 0 220 0 220 -2940 0 -2940 0 2
218 3 217 2938 0 2937 0 0 218 0 217 -197 0 c-109 0 -1431 1 -2938 3 l-2740 2
-3 218 -2 217 1702 0 c937 0 2260 0 2941 0 l1237 0 0 220 0 220 -5120 0 -5120
0 0 -1530z m3286 1365 c18 -57 21 -59 81 -55 54 3 56 -10 9 -46 l-45 -34 14
-48 c21 -66 20 -66 -29 -32 -25 16 -47 30 -50 30 -4 0 -25 -14 -48 -30 -23
-17 -43 -29 -45 -27 -2 2 4 23 12 47 8 23 15 48 15 55 0 7 -21 27 -47 44 -27
17 -43 31 -38 32 6 1 33 3 60 3 l50 2 20 57 c11 31 21 57 22 57 1 0 10 -25 19
-55z m732 -6 l17 -54 50 -1 c72 -1 72 -1 24 -35 -24 -18 -46 -33 -48 -35 -2
-2 4 -24 13 -50 23 -67 21 -69 -28 -34 -25 16 -48 30 -53 30 -4 0 -26 -14 -47
-30 -22 -17 -41 -28 -44 -26 -2 3 4 28 13 56 9 28 15 53 14 54 -2 2 -24 17
-48 35 -24 17 -42 32 -40 32 2 1 27 3 54 4 28 2 53 4 57 4 4 1 15 26 24 56 10
30 19 53 21 51 2 -2 11 -27 21 -57z m-3643 1 c16 -50 17 -50 61 -51 24 -1 49
-3 54 -4 6 -1 13 -3 18 -4 4 -1 -14 -15 -40 -32 -27 -17 -48 -37 -48 -44 0 -7
7 -32 15 -55 8 -24 14 -45 12 -47 -2 -1 -21 10 -43 27 -21 16 -44 30 -50 30
-6 0 -28 -13 -50 -30 -21 -16 -42 -30 -46 -30 -4 0 2 25 12 55 l19 55 -46 35
c-25 19 -43 36 -39 36 3 1 11 3 16 4 6 1 30 3 54 4 38 1 45 4 50 26 9 35 25
75 30 75 2 0 12 -22 21 -50z m725 5 c7 -25 16 -48 20 -50 4 -3 30 -5 59 -6 28
-1 51 -5 51 -9 0 -4 -18 -20 -40 -35 -45 -31 -45 -32 -25 -97 8 -27 12 -48 10
-48 -3 0 -25 14 -50 32 l-45 32 -44 -32 c-24 -18 -47 -32 -50 -32 -3 0 4 25
14 55 l19 56 -44 31 c-24 17 -42 34 -40 38 2 3 25 7 51 9 26 1 51 4 55 6 4 3
13 25 20 50 7 25 16 45 20 45 3 0 12 -20 19 -45z m731 -5 c13 -49 13 -50 53
-52 23 0 49 -1 59 0 28 3 20 -13 -27 -46 l-45 -32 19 -55 c10 -30 16 -55 13
-55 -3 0 -22 14 -43 30 -21 17 -42 30 -47 30 -5 0 -28 -14 -51 -31 -24 -17
-45 -30 -47 -28 -2 2 5 28 15 56 l18 53 -44 32 c-24 17 -44 34 -44 38 0 3 23
7 52 9 28 1 55 4 59 6 3 3 12 25 19 50 7 25 16 45 20 45 5 0 14 -22 21 -50z
m728 0 c14 -54 12 -53 99 -52 17 0 32 -3 32 -6 -1 -4 -21 -22 -45 -39 l-44
-33 19 -55 c10 -30 16 -55 12 -55 -4 0 -25 14 -46 30 -22 17 -43 30 -48 30 -4
0 -27 -14 -50 -30 -23 -17 -43 -29 -45 -27 -2 2 4 23 12 47 21 61 20 64 -32
98 -52 34 -48 40 32 44 l49 3 15 48 c8 26 17 47 21 47 3 0 12 -22 19 -50z
m-1823 -325 l18 -55 58 0 c32 0 58 -3 58 -7 0 -7 -33 -32 -82 -64 -4 -3 -2
-25 7 -48 24 -70 20 -76 -27 -42 -23 17 -46 31 -51 31 -4 0 -29 -14 -54 -32
-30 -20 -44 -26 -40 -15 3 9 11 35 17 58 11 41 10 44 -13 61 -14 10 -36 27
-49 38 l-23 19 62 1 62 0 17 55 c10 30 19 55 20 55 2 0 11 -25 20 -55z m730 0
l18 -55 58 0 c32 0 58 -3 58 -7 0 -5 -21 -21 -45 -38 -25 -16 -45 -33 -45 -36
0 -4 7 -26 15 -49 22 -63 19 -65 -32 -27 l-47 34 -48 -34 c-26 -19 -48 -33
-48 -31 0 3 7 28 16 57 17 58 17 57 -48 98 -16 10 -28 21 -28 25 0 4 27 8 59
8 l60 0 17 55 c10 30 19 55 20 55 2 0 11 -25 20 -55z m807 -55 l62 -1 -25 -22
c-14 -12 -36 -29 -49 -37 -23 -15 -23 -16 -7 -69 9 -30 15 -56 13 -57 -1 -1
-22 12 -47 30 l-45 32 -47 -34 c-53 -38 -54 -37 -33 32 16 54 17 54 -47 93
-16 10 -28 21 -28 25 0 4 26 8 58 8 l58 0 19 58 18 57 19 -57 20 -58 61 0z
m1451 2 c31 -2 56 -6 56 -10 0 -4 -18 -20 -40 -36 -45 -34 -46 -37 -25 -96 8
-24 14 -45 12 -47 -2 -1 -21 10 -43 27 -21 16 -45 30 -53 30 -7 0 -30 -13 -51
-30 -21 -16 -40 -30 -43 -30 -3 0 3 25 13 55 l19 55 -44 33 c-24 17 -44 35
-45 40 0 4 26 7 59 7 56 0 59 1 64 28 3 15 11 41 17 57 l12 30 18 -55 17 -55
57 -3z m-799 48 l17 -50 61 0 62 -1 -23 -19 c-13 -11 -35 -28 -50 -39 l-26
-19 16 -53 c10 -29 16 -54 14 -56 -1 -2 -20 10 -42 27 -21 16 -44 30 -50 30
-6 0 -30 -13 -52 -30 -23 -16 -44 -30 -46 -30 -3 0 4 25 14 56 22 64 25 58
-50 107 l-35 22 67 3 c60 3 67 5 72 27 9 35 25 75 30 75 2 0 12 -22 21 -50z
m-2473 -380 l61 0 -47 -35 c-25 -20 -46 -40 -46 -44 0 -5 7 -28 15 -51 8 -24
13 -45 11 -48 -3 -2 -25 10 -49 28 l-45 32 -42 -31 c-24 -17 -45 -29 -47 -27
-3 2 2 27 11 55 l15 51 -46 32 -46 33 58 5 c57 5 58 5 72 45 7 22 16 47 19 55
4 9 14 -7 26 -42 l20 -58 60 0z m652 55 l17 -55 62 0 61 0 -47 -32 c-51 -36
-55 -50 -32 -105 8 -20 13 -38 11 -41 -3 -2 -25 10 -50 28 l-45 33 -42 -32
c-24 -17 -46 -31 -50 -31 -5 0 0 24 11 54 l18 54 -46 33 -47 34 60 5 60 5 15
53 c8 28 17 52 21 52 3 0 13 -25 23 -55z m726 3 l15 -53 64 -3 64 -3 -51 -35
-50 -36 18 -54 c11 -30 17 -54 14 -54 -3 0 -26 14 -51 31 l-45 31 -43 -31
c-24 -17 -46 -31 -49 -31 -3 0 3 24 14 54 l18 54 -51 36 -51 36 61 0 c66 0 71
5 89 83 9 40 17 34 34 -25z m731 -6 l16 -47 57 -5 58 -5 -45 -34 -45 -33 18
-54 c11 -30 15 -54 11 -54 -4 0 -27 14 -51 31 l-42 31 -43 -31 c-24 -17 -46
-31 -48 -31 -3 0 2 25 10 56 14 48 14 57 2 64 -8 5 -29 20 -48 34 l-35 26 62
0 61 0 17 55 c10 30 20 52 23 49 3 -3 13 -26 22 -52z m730 0 l16 -47 58 -5 58
-5 -47 -33 c-25 -18 -46 -34 -46 -36 0 -1 7 -24 16 -50 9 -26 14 -49 12 -51
-2 -3 -24 9 -47 27 l-42 31 -46 -32 c-25 -18 -47 -30 -49 -28 -2 2 3 23 11 47
8 23 15 46 15 51 0 4 -21 24 -46 44 l-47 35 61 0 61 0 17 55 c10 30 20 52 23
49 3 -3 13 -26 22 -52z m725 3 l18 -55 60 -1 c60 0 61 0 36 -17 -69 -48 -72
-52 -55 -106 8 -27 13 -51 12 -53 -2 -2 -23 11 -47 28 l-43 31 -44 -32 c-25
-17 -47 -29 -49 -27 -2 2 3 25 13 52 16 48 16 49 -8 69 -14 12 -36 29 -49 38
-25 17 -24 17 35 17 l61 1 19 55 c10 30 20 55 21 55 2 0 11 -25 20 -55z
m-3275 -333 l16 -47 59 -5 59 -5 -36 -23 c-58 -35 -61 -43 -43 -96 9 -26 14
-49 12 -51 -2 -3 -24 9 -47 27 l-42 31 -46 -32 c-25 -18 -47 -30 -49 -28 -2 2
3 23 11 47 8 23 15 48 15 54 0 6 -21 25 -45 41 l-45 30 57 5 58 5 19 53 c10
29 21 50 25 47 3 -4 13 -27 22 -53z m733 -14 c15 -38 15 -38 72 -38 l57 0 -47
-35 c-25 -20 -46 -37 -46 -39 0 -1 7 -24 16 -50 9 -26 14 -49 12 -51 -2 -3
-24 9 -47 27 l-42 31 -46 -32 c-25 -18 -47 -30 -49 -28 -2 2 3 26 11 53 8 27
15 50 15 51 0 1 -21 18 -46 37 l-46 35 59 3 58 3 19 54 c16 44 21 51 27 35 5
-10 15 -36 23 -56z m730 0 c15 -38 15 -38 72 -38 l58 0 -35 -26 c-19 -14 -40
-29 -48 -33 -11 -7 -11 -17 2 -62 9 -29 15 -55 13 -57 -2 -2 -24 11 -49 28
l-44 32 -43 -31 c-24 -17 -45 -29 -48 -27 -2 3 3 26 12 52 18 53 15 61 -43 96
l-36 23 60 5 c64 5 59 -1 92 100 5 16 7 14 37 -62z m739 -26 c5 -7 31 -12 65
-12 l56 0 -35 -26 c-19 -14 -41 -29 -49 -34 -13 -7 -12 -15 3 -61 9 -29 15
-55 13 -57 -2 -2 -24 11 -49 29 l-46 32 -42 -32 c-54 -39 -61 -39 -45 2 30 72
30 73 -20 109 l-47 33 58 5 c57 5 58 5 72 45 24 72 24 72 42 25 9 -25 20 -51
24 -58z m711 43 l17 -55 57 0 57 -1 -25 -20 c-14 -12 -34 -27 -44 -35 -19 -13
-19 -15 -3 -66 9 -28 15 -54 12 -56 -2 -2 -24 10 -49 28 l-44 32 -45 -31 c-25
-17 -48 -31 -51 -31 -3 0 4 25 14 55 l19 55 -46 32 -46 33 59 5 59 5 15 53 c8
28 17 52 21 52 3 0 13 -25 23 -55z m-3201 -345 l62 -1 -27 -20 c-75 -56 -72
-49 -55 -107 9 -29 13 -52 8 -52 -4 0 -26 14 -49 31 l-41 30 -41 -32 c-22 -18
-43 -30 -46 -26 -3 3 1 28 10 54 16 48 16 48 -8 66 -13 10 -35 26 -48 37 l-23
19 61 1 61 0 13 48 c19 70 22 71 43 9 l19 -57 61 0z m730 -1 c61 0 62 0 37
-17 -13 -9 -36 -27 -49 -38 l-26 -22 17 -51 c9 -28 13 -51 9 -51 -4 0 -26 14
-48 30 l-42 31 -43 -31 c-23 -17 -44 -27 -45 -23 -2 5 3 30 11 55 l13 46 -46
33 -46 34 59 5 c59 5 59 5 73 45 7 22 16 47 19 55 4 9 14 -7 26 -42 l20 -58
61 -1z m647 59 l15 -53 63 -5 62 -5 -49 -33 -49 -34 18 -54 c11 -30 16 -54 11
-54 -4 0 -26 14 -48 30 l-42 31 -42 -31 c-23 -16 -46 -30 -50 -30 -4 0 -2 19
6 41 22 60 20 66 -31 102 l-46 32 64 5 63 5 15 53 c8 28 17 52 20 52 3 0 12
-24 20 -52z m731 -8 l13 -50 60 0 61 -1 -23 -19 c-13 -11 -35 -27 -48 -37
l-25 -18 20 -58 20 -58 -50 36 -50 36 -50 -36 c-53 -39 -57 -37 -34 18 22 54
19 63 -31 102 l-47 35 61 0 61 0 17 55 c10 30 21 52 25 50 4 -3 13 -28 20 -55z
m729 -2 l13 -48 61 0 61 -1 -23 -19 c-13 -11 -35 -27 -48 -37 -24 -18 -24 -18
-8 -66 9 -26 14 -51 11 -54 -4 -3 -24 9 -46 27 l-41 31 -45 -32 c-25 -18 -47
-30 -50 -27 -3 2 2 26 12 53 18 54 21 47 -55 104 l-27 20 62 1 62 0 17 55 c10
30 21 52 24 48 4 -5 13 -29 20 -55z m726 7 l18 -55 60 0 c67 -1 68 1 -8 -55
l-27 -20 15 -50 c8 -27 13 -51 11 -53 -2 -3 -19 6 -37 20 -18 13 -38 27 -44
31 -6 3 -30 -8 -53 -25 -23 -17 -44 -28 -46 -26 -3 3 2 26 12 53 18 54 21 47
-55 104 l-27 20 61 1 60 0 18 55 c9 30 19 55 21 55 2 0 12 -25 21 -55z m-3276
-333 l15 -47 59 -5 59 -5 -47 -33 c-25 -18 -46 -34 -46 -36 0 -1 7 -24 16 -50
9 -26 14 -49 12 -52 -3 -2 -24 10 -48 27 l-42 31 -45 -32 c-24 -18 -46 -30
-49 -28 -2 3 3 26 13 53 18 54 21 47 -55 104 l-27 20 62 1 62 0 17 55 c10 30
20 52 23 49 3 -3 13 -26 21 -52z m726 3 l18 -55 60 0 61 -1 -27 -20 c-73 -55
-70 -49 -52 -102 9 -26 14 -50 11 -53 -3 -3 -24 8 -47 25 -45 33 -46 33 -102
-12 -43 -33 -45 -30 -21 38 18 54 21 47 -55 104 l-27 20 61 1 60 0 18 55 c9
30 19 55 21 55 2 0 12 -25 21 -55z m730 0 l18 -55 60 -1 c60 0 61 0 36 -17
-13 -9 -35 -26 -49 -38 -24 -20 -24 -21 -8 -69 10 -27 15 -51 12 -53 -2 -3
-19 6 -37 20 -18 13 -38 27 -44 31 -6 4 -30 -7 -54 -24 -23 -17 -44 -28 -47
-25 -3 3 2 27 11 53 18 53 23 44 -50 100 l-29 22 61 0 60 1 18 55 c9 30 19 55
21 55 2 0 12 -25 21 -55z m807 -55 l61 0 -35 -26 c-19 -14 -41 -29 -49 -34
-13 -7 -12 -15 3 -61 9 -29 15 -55 12 -57 -2 -2 -24 10 -48 28 l-45 32 -42
-31 c-24 -17 -45 -29 -48 -27 -2 3 3 26 12 52 9 26 16 48 16 49 0 1 -21 17
-47 36 l-48 34 59 5 c59 5 59 5 73 45 7 22 16 47 19 55 4 9 14 -7 26 -42 l20
-58 61 0z m730 0 l62 0 -47 -33 c-52 -35 -55 -45 -33 -106 8 -22 11 -41 7 -41
-5 0 -27 14 -49 30 l-42 31 -42 -31 c-42 -30 -66 -39 -54 -20 3 5 12 29 19 54
l14 44 -47 34 -46 33 59 5 c59 5 59 5 73 45 7 22 16 47 19 55 4 9 14 -7 26
-42 l20 -58 61 0z m-3280 -290 l62 -1 -27 -20 c-78 -58 -74 -51 -56 -110 10
-29 16 -54 14 -56 -1 -2 -23 12 -48 32 l-46 34 -45 -34 c-25 -19 -48 -35 -51
-35 -3 0 4 25 14 56 22 63 23 61 -42 101 -16 10 -28 21 -28 25 0 4 26 8 59 8
l58 0 13 48 c19 70 22 71 43 9 l19 -57 61 0z m2833 55 l18 -55 58 0 c32 0 58
-4 58 -8 0 -4 -12 -15 -27 -25 -64 -39 -64 -39 -48 -92 21 -69 20 -70 -31 -31
l-47 36 -48 -36 c-27 -20 -49 -32 -49 -27 0 4 8 30 17 57 20 54 25 44 -53 103
l-29 22 62 0 62 1 17 55 c10 30 19 55 20 55 2 0 11 -25 20 -55z m730 0 l18
-55 58 0 c56 0 76 -12 41 -25 -10 -3 -31 -16 -47 -29 l-29 -24 17 -48 c9 -26
16 -52 16 -57 0 -5 -21 7 -47 26 l-48 35 -47 -35 c-27 -19 -48 -31 -48 -26 0
5 7 31 16 58 l17 48 -26 19 c-14 10 -36 27 -49 38 l-23 19 62 1 61 0 17 55
c10 30 19 55 21 55 2 0 11 -25 20 -55z m-2914 -2 l14 -48 57 -3 c31 -2 57 -6
57 -10 0 -4 -18 -20 -40 -35 -45 -32 -46 -37 -25 -97 8 -24 14 -45 12 -47 -2
-2 -24 12 -49 32 l-46 34 -45 -34 c-25 -19 -48 -35 -51 -35 -3 0 4 25 14 55
l19 55 -37 30 c-20 16 -40 30 -44 30 -5 0 -8 4 -8 10 0 5 26 10 57 12 l57 3
15 48 c8 26 18 47 22 47 4 0 14 -21 21 -47z m729 -3 l13 -50 58 0 c32 0 58 -3
58 -7 -1 -5 -19 -20 -40 -35 -45 -31 -46 -34 -25 -100 8 -27 12 -48 8 -48 -3
0 -22 14 -43 30 -21 17 -44 30 -51 30 -8 0 -32 -14 -53 -30 -22 -17 -41 -28
-43 -27 -2 2 4 23 12 47 21 60 20 65 -25 97 -22 15 -40 31 -40 35 0 4 26 8 57
10 l57 3 15 48 c8 26 18 47 22 47 4 0 13 -22 20 -50z m730 0 l13 -50 58 0 c32
0 58 -4 58 -8 0 -4 -12 -15 -27 -25 -66 -40 -65 -38 -43 -101 21 -63 20 -63
-49 -12 l-34 25 -45 -35 c-25 -19 -47 -33 -48 -31 -2 2 4 27 14 56 18 59 24
49 -54 108 l-29 22 61 0 c66 1 68 2 89 79 10 35 22 26 36 -28z m-1821 -328
l15 -47 59 -5 59 -5 -47 -33 c-25 -18 -46 -34 -46 -36 0 -1 7 -24 16 -50 9
-26 14 -49 12 -51 -2 -3 -24 9 -47 27 l-42 31 -46 -32 c-25 -18 -47 -30 -49
-28 -2 2 3 23 11 47 8 23 15 46 15 51 0 4 -21 24 -46 44 l-47 35 60 0 60 0 18
55 c11 30 21 52 24 49 4 -3 13 -26 21 -52z m726 3 l18 -55 60 0 61 -1 -27 -20
c-73 -55 -70 -49 -52 -102 9 -26 14 -51 11 -54 -4 -3 -24 9 -45 26 -22 17 -43
31 -47 31 -4 0 -25 -14 -47 -31 -43 -35 -53 -34 -40 2 26 70 25 76 -24 113
l-47 36 60 0 59 0 18 55 c9 30 19 55 21 55 2 0 12 -25 21 -55z m730 0 l18 -55
60 -1 c60 0 61 0 36 -17 -13 -9 -35 -26 -49 -38 -24 -20 -24 -21 -8 -69 10
-27 15 -50 13 -52 -2 -2 -24 10 -49 27 l-44 32 -43 -31 c-24 -17 -45 -29 -48
-27 -2 3 3 26 12 52 18 53 15 61 -43 96 l-36 23 60 5 60 5 19 53 c10 28 20 52
22 52 2 0 11 -25 20 -55z m807 -55 l61 0 -35 -26 c-19 -14 -41 -29 -49 -34
-13 -7 -12 -15 3 -61 9 -29 15 -55 13 -57 -2 -2 -24 11 -49 29 l-46 32 -42
-31 c-23 -18 -45 -30 -47 -27 -2 2 3 25 12 51 9 26 16 49 16 50 0 2 -21 18
-46 36 l-47 33 58 5 c57 5 58 5 72 45 7 22 16 47 19 55 4 9 14 -7 26 -42 l20
-58 61 0z m730 0 l61 0 -47 -32 c-51 -36 -53 -44 -33 -103 17 -48 14 -53 -16
-31 -73 52 -63 51 -112 17 -24 -17 -47 -31 -50 -31 -3 0 4 25 14 55 l19 55
-47 32 -47 33 59 5 c59 5 59 5 73 45 7 22 16 47 19 55 4 9 14 -7 26 -42 l20
-58 61 0z m-3280 -290 l62 -1 -27 -20 c-77 -57 -73 -50 -55 -107 10 -28 17
-54 17 -57 0 -4 -22 9 -49 29 l-48 36 -46 -35 c-25 -19 -48 -35 -51 -35 -3 0
4 26 15 57 10 31 16 60 12 64 -5 3 -28 21 -52 38 l-44 31 66 0 65 0 7 33 c4
17 12 43 17 57 10 24 11 22 30 -32 l20 -58 61 0z m2108 50 l13 -50 60 0 61 -1
-26 -22 c-15 -12 -36 -30 -47 -39 l-21 -17 19 -56 c21 -60 19 -60 -43 -12
l-37 29 -52 -38 c-31 -23 -49 -32 -46 -22 4 9 12 35 19 58 14 46 10 53 -61
102 -25 17 -24 17 37 17 l62 1 17 55 c10 30 21 52 25 50 4 -3 13 -28 20 -55z
m725 5 l18 -55 60 0 61 -1 -23 -19 c-13 -11 -35 -28 -48 -37 -24 -18 -25 -19
-9 -62 24 -70 20 -76 -31 -37 l-47 36 -48 -35 c-27 -19 -49 -31 -49 -27 0 5 7
30 17 57 18 54 21 47 -55 104 l-27 20 62 1 62 0 17 55 c10 30 19 55 20 55 2 0
11 -25 20 -55z m730 0 l18 -55 60 0 61 -1 -23 -19 c-13 -11 -35 -27 -48 -37
-24 -18 -24 -19 -9 -68 8 -28 15 -54 15 -58 0 -4 -21 8 -46 27 l-47 36 -48
-35 c-27 -19 -49 -31 -49 -27 0 5 7 30 17 57 l16 49 -28 21 c-77 56 -76 54 -8
55 l62 0 16 55 c8 30 17 55 20 55 2 0 12 -25 21 -55z m-2914 -2 l14 -48 63 -5
64 -5 -47 -33 c-51 -37 -52 -41 -31 -102 8 -23 15 -45 15 -47 0 -3 -22 12 -50
32 l-50 37 -37 -29 c-62 -48 -64 -48 -43 13 22 63 23 61 -42 101 -16 10 -28
21 -28 25 0 4 26 8 57 10 l57 3 15 48 c8 26 18 47 22 47 4 0 14 -21 21 -47z
m729 0 l15 -48 63 -5 63 -5 -46 -32 c-51 -36 -53 -42 -31 -103 8 -23 15 -45
15 -47 0 -3 -23 11 -50 31 l-51 36 -46 -35 c-25 -19 -48 -34 -50 -32 -2 2 4
23 12 47 21 60 20 67 -25 98 -21 15 -39 30 -40 35 0 4 25 7 55 7 l54 0 18 50
c10 28 20 50 24 50 3 0 12 -21 20 -47z"/>
<path d="M0 1970 l0 -220 5120 0 5120 0 0 220 0 220 -5120 0 -5120 0 0 -220z"/>
<path d="M0 1095 l0 -215 5120 0 5120 0 0 215 0 215 -5120 0 -5120 0 0 -215z"/>
<path d="M0 220 l0 -220 5120 0 5120 0 0 220 0 220 -5120 0 -5120 0 0 -220z"/>
</g>
</svg>
