<?xml version="1.0" standalone="no"?>
<!DOCTYPE svg PUBLIC "-//W3C//DTD SVG 20010904//EN"
 "http://www.w3.org/TR/2001/REC-SVG-20010904/DTD/svg10.dtd">
<svg version="1.0" xmlns="http://www.w3.org/2000/svg"
 width="612.000000pt" height="612.000000pt" viewBox="0 0 612.000000 612.000000"
 preserveAspectRatio="xMidYMid meet">

<g transform="translate(0.000000,612.000000) scale(0.100000,-0.100000)"
fill="#000000" stroke="none">
<path d="M2890 5414 c-193 -17 -356 -48 -522 -99 -523 -160 -974 -500 -1281
-965 l-69 -105 1021 -3 c562 -1 1480 -1 2041 0 l1020 3 -37 60 c-128 209 -373
478 -568 626 -326 247 -695 403 -1095 464 -102 15 -419 27 -510 19z"/>
<path d="M2166 3947 c3 -10 9 -15 12 -12 3 3 0 11 -7 18 -10 9 -11 8 -5 -6z"/>
<path d="M2130 3930 c-8 -5 -12 -11 -10 -14 3 -2 14 2 24 10 22 15 10 19 -14
4z"/>
<path d="M2170 3879 c0 -28 5 -38 20 -42 11 -3 20 -3 20 -1 0 2 -9 21 -20 41
l-20 38 0 -36z"/>
<path d="M2124 3866 c-3 -8 -4 -27 -2 -42 3 -25 7 -28 40 -27 35 0 36 0 26
-28 -6 -18 -15 -26 -24 -22 -8 3 -14 0 -14 -6 0 -6 6 -10 13 -8 6 1 13 -10 15
-25 3 -22 0 -26 -16 -21 -14 3 -22 18 -28 56 -5 29 -12 50 -16 47 -3 -3 -19 6
-34 20 -16 14 -23 18 -17 10 10 -13 8 -16 -7 -16 -10 0 -16 4 -13 9 3 5 -4 4
-16 -2 -16 -9 -21 -9 -21 1 0 6 -6 3 -14 -7 -16 -23 -12 -35 12 -35 15 0 15 2
2 10 -11 7 -1 10 35 9 39 0 45 -3 30 -10 -15 -7 -11 -8 15 -3 26 4 31 3 20 -5
-8 -6 -10 -11 -4 -11 6 0 14 -19 18 -42 3 -24 9 -53 12 -65 3 -13 2 -23 -3
-23 -5 0 -10 14 -11 32 -2 18 -4 34 -6 35 -2 2 -32 -3 -67 -12 -35 -9 -77 -19
-94 -23 -20 -5 -26 -10 -17 -15 6 -5 12 -14 12 -20 0 -7 -5 -4 -11 5 -5 9 -15
16 -22 14 -6 -1 -9 -1 -4 1 14 8 7 19 -13 20 -11 1 -18 -2 -15 -8 4 -5 -10 -9
-29 -9 -19 0 -60 -9 -91 -21 -49 -18 -54 -23 -49 -44 3 -12 2 -25 -3 -28 -6
-4 -9 19 -7 51 1 47 0 52 -7 27 -5 -16 -6 -38 -3 -49 4 -12 2 -16 -5 -12 -6 4
-11 14 -11 22 0 8 -5 14 -10 14 -6 0 -8 -11 -4 -27 10 -41 12 -43 49 -43 18 0
35 -6 37 -12 3 -7 19 -13 37 -14 35 -2 54 -14 33 -21 -6 -3 -10 -9 -6 -14 8
-13 -40 -11 -53 2 -6 6 -17 8 -23 4 -12 -7 45 -64 65 -64 6 0 -1 9 -15 20
l-25 21 32 -18 c29 -16 34 -16 50 -2 12 10 25 13 38 8 14 -6 15 -9 4 -9 -21
-1 -69 -24 -69 -34 0 -4 7 -10 15 -13 8 -4 15 -13 15 -21 0 -17 31 -14 37 4 2
6 -11 14 -29 19 l-33 7 40 14 c22 7 66 17 98 20 l59 6 -33 14 c-28 11 -34 11
-49 -2 -25 -22 -33 -18 -10 5 11 11 20 28 21 38 0 13 2 12 9 -5 12 -30 55 -40
79 -19 16 14 23 15 39 5 26 -16 66 -5 80 23 8 18 11 19 11 6 1 -10 10 -22 22
-28 23 -13 69 -6 69 10 0 6 9 1 20 -10 27 -27 55 -25 79 6 19 24 21 25 21 7 0
-29 25 -46 60 -41 19 3 31 0 35 -10 3 -10 13 -12 31 -8 19 5 24 4 18 -6 -4 -8
-3 -10 2 -5 5 5 9 14 9 20 0 5 10 11 22 12 13 1 24 4 25 6 2 2 8 13 14 24 6
11 22 23 35 26 22 6 22 7 3 8 -12 1 -27 -6 -34 -14 -16 -19 -30 -19 -30 -1 0
20 17 29 52 28 15 0 26 3 23 8 -3 4 2 10 10 14 8 3 15 11 14 18 0 10 -2 10 -6
1 -2 -7 -9 -13 -14 -13 -6 0 -5 9 1 21 19 34 4 33 -17 -1 -17 -26 -21 -29 -27
-15 -3 9 -1 24 4 33 9 14 10 12 5 -8 -4 -18 -3 -21 4 -10 5 9 6 33 2 57 -5 24
-4 40 0 37 5 -3 9 -16 9 -30 0 -17 5 -24 19 -24 11 0 22 4 26 9 3 6 -5 8 -17
6 -22 -4 -22 -4 -4 10 18 13 15 20 -6 16 -5 0 -8 9 -8 21 0 12 -3 18 -7 15 -9
-9 -32 12 -29 26 1 7 1 9 -1 5 -2 -3 -16 0 -31 8 -30 15 -77 20 -53 5 11 -7
11 -10 0 -15 -8 -3 -1 -4 14 -1 17 3 26 2 23 -4 -3 -5 1 -12 10 -15 10 -4 13
-2 9 7 -4 6 0 4 8 -5 8 -10 16 -15 19 -13 3 3 6 -15 6 -40 2 -50 -1 -52 -48
-29 -18 9 -52 19 -76 22 -40 4 -49 11 -45 36 1 5 -4 13 -11 17 -10 7 -10 9 0
9 10 0 10 4 0 23 -18 31 -30 38 -48 24 -13 -10 -13 -10 -2 5 8 9 21 14 30 11
14 -4 15 -3 2 5 -8 6 -18 8 -22 6 -5 -3 -11 2 -14 10 -3 9 -10 16 -16 16 -5 0
-6 -6 -1 -12 14 -23 12 -37 -5 -31 -10 3 -5 -4 11 -16 15 -12 27 -30 28 -39 0
-11 2 -13 6 -4 3 7 -1 20 -9 30 -12 15 -11 16 5 3 9 -7 17 -26 17 -42 0 -15 5
-31 10 -34 6 -3 10 -11 10 -18 0 -6 -7 -2 -16 9 -14 17 -15 17 -10 1 3 -10 2
-15 -3 -12 -6 3 -14 -3 -20 -12 -6 -10 -10 -13 -10 -8 0 6 6 19 14 29 8 11 15
24 15 30 0 5 -6 1 -14 -9 -13 -18 -16 -18 -67 -2 -30 8 -69 19 -88 22 -33 7
-34 7 -29 -24 3 -18 -1 -36 -8 -42 -9 -8 -11 1 -7 38 8 87 8 88 44 99 28 10
30 12 14 17 -11 2 4 5 33 6 37 1 51 4 46 13 -4 7 -3 8 4 4 7 -4 12 -2 12 3 0
6 -7 11 -15 11 -8 0 -15 -3 -15 -7 0 -12 -70 -9 -71 2 0 6 -7 -3 -15 -20 -9
-17 -13 -21 -11 -10 5 28 -15 45 -55 45 -27 1 -30 2 -16 11 10 5 15 16 12 24
-8 19 -23 19 -30 1z m51 -196 c3 -5 -1 -10 -9 -10 -9 0 -16 5 -16 10 0 6 4 10
9 10 6 0 13 -4 16 -10z m0 -57 c16 -22 8 -43 -16 -43 -19 0 -24 16 -13 44 8
20 14 20 29 -1z m-215 -44 c0 -21 -20 -25 -38 -7 -17 17 5 53 24 37 8 -6 14
-20 14 -30z m447 -4 c-5 -14 -47 -19 -47 -5 0 6 5 21 11 32 11 21 12 21 25 3
8 -11 13 -24 11 -30z m-390 -18 c-2 -6 -11 -15 -20 -21 -21 -13 -42 11 -26 30
12 14 51 6 46 -9z m121 2 c4 -23 -26 -32 -50 -15 -19 14 -19 14 -1 25 24 14
47 10 51 -10z m94 10 c20 -11 20 -11 -2 -26 -25 -17 -47 -5 -37 21 7 19 12 19
39 5z m118 -14 c17 -21 -11 -31 -41 -14 -23 12 -23 12 -4 20 29 11 31 11 45
-6z m-431 -9 c10 -12 8 -17 -8 -26 -14 -7 -21 -7 -21 0 0 5 -8 10 -17 10 -15
0 -14 2 3 15 24 18 29 18 43 1z m524 -1 c18 -13 18 -14 -3 -25 -26 -14 -46 0
-37 24 8 19 16 20 40 1z m-375 -16 c-2 -6 -8 -10 -13 -10 -5 0 -11 4 -13 10
-2 6 4 11 13 11 9 0 15 -5 13 -11z m207 1 c3 -5 1 -10 -4 -10 -6 0 -11 5 -11
10 0 6 2 10 4 10 3 0 8 -4 11 -10z m285 -24 c0 -26 -21 -29 -43 -7 l-21 21 32
0 c21 0 32 -5 32 -14z m-80 -16 c0 -5 -5 -10 -11 -10 -5 0 -7 5 -4 10 3 6 8
10 11 10 2 0 4 -4 4 -10z"/>
<path d="M2320 3784 c-14 -8 -18 -13 -10 -13 24 1 55 15 44 21 -5 2 -20 -1
-34 -8z"/>
<path d="M1905 3767 c-14 -20 -19 -17 -16 8 1 6 -4 3 -11 -5 -7 -8 -20 -15
-28 -15 -8 0 -21 7 -28 15 -8 8 -11 10 -8 3 8 -15 -10 -27 -19 -13 -8 13 -25
13 -25 -1 0 -5 5 -7 12 -3 7 4 8 3 4 -5 -4 -6 -11 -9 -16 -6 -4 2 -19 -5 -34
-16 -23 -18 -25 -19 -19 -2 4 12 -1 9 -14 -7 -16 -20 -43 -81 -43 -96 0 -2 6
-4 14 -4 7 0 16 14 20 31 3 17 10 28 15 25 4 -3 16 3 26 14 10 11 14 20 9 20
-5 0 -2 5 6 10 8 6 26 8 40 7 14 -2 19 -2 13 0 -7 3 -13 9 -13 13 0 6 10 6 23
1 12 -4 39 -7 60 -5 35 2 37 1 20 -11 -14 -11 -15 -14 -3 -15 13 0 13 -1 0
-10 -13 -9 -13 -11 0 -20 12 -7 16 -4 21 18 l6 27 5 -25 c4 -17 4 -14 2 7 -1
18 2 36 8 39 7 5 8 2 3 -7 -8 -12 -6 -12 8 0 9 7 14 18 10 24 -4 7 0 8 13 3
14 -5 16 -4 8 4 -21 21 -53 20 -69 -3z m36 -4 c12 -16 12 -17 -2 -6 -9 7 -20
9 -24 5 -5 -4 -5 -1 -1 6 9 16 11 15 27 -5z m-211 -68 c-7 -9 -15 -13 -19 -10
-3 3 1 10 9 15 21 14 24 12 10 -5z"/>
<path d="M2140 3775 c0 -8 9 -15 20 -15 11 0 20 7 20 15 0 8 -9 15 -20 15 -11
0 -20 -7 -20 -15z"/>
<path d="M2474 3772 c7 -12 -5 -16 -31 -13 -7 1 -13 -4 -13 -12 0 -9 11 -12
31 -11 29 2 55 14 30 14 -7 0 -10 4 -6 9 3 5 0 13 -6 17 -8 4 -9 3 -5 -4z"/>
<path d="M2137 3469 c-10 -6 -33 -8 -50 -5 -18 3 -39 1 -47 -4 -10 -7 22 -10
100 -10 110 0 220 -8 229 -16 2 -2 -14 -4 -36 -4 -27 0 -43 -5 -46 -15 -7 -16
-3 -20 36 -29 20 -5 27 -3 27 8 0 8 -10 17 -22 20 -13 2 -6 4 14 2 21 -1 36 3
35 9 -2 11 18 9 78 -7 40 -11 40 -11 14 -21 -19 -7 -26 -17 -25 -34 0 -12 5
-23 9 -23 5 0 5 -4 2 -10 -3 -5 -13 -10 -21 -10 -8 0 -13 4 -10 9 14 22 -225
43 -362 31 -56 -5 -119 -12 -140 -14 -30 -5 -32 -4 -12 3 21 7 21 9 5 9 -11 0
-29 -3 -39 -7 -19 -7 -18 -8 5 -14 20 -6 22 -9 9 -18 -11 -8 -6 -9 20 -5 19 3
29 3 22 0 -6 -3 -10 -9 -8 -13 3 -4 -48 -7 -112 -6 l-117 0 -3 -154 -3 -154
-37 7 c-20 3 -54 6 -75 6 l-38 0 2 103 c1 72 6 107 16 119 8 9 13 27 10 40 -4
21 -4 20 -6 -4 l-1 -28 -101 0 -101 0 4 29 c2 17 1 28 -4 25 -13 -8 -9 -51 7
-64 8 -6 13 -22 12 -33 -2 -20 3 -22 48 -23 28 -1 62 -2 78 -3 l27 -1 0 -81
c0 -65 -3 -80 -14 -76 -7 3 -31 2 -52 -3 -22 -5 -50 -11 -64 -13 -42 -8 -120
-50 -125 -68 -9 -28 33 -116 58 -123 49 -13 57 -8 57 33 0 22 -5 41 -12 44 -7
2 7 10 32 17 55 16 215 17 253 2 25 -11 27 -15 27 -72 0 -57 1 -60 25 -60 l25
0 0 -217 c-1 -194 -2 -216 -15 -199 -8 11 -15 24 -15 30 0 5 -3 7 -6 4 -9 -9
21 -60 53 -90 15 -15 53 -38 84 -52 55 -24 59 -24 119 -10 75 17 95 27 139 68
19 17 30 24 26 16 -7 -13 -6 -13 7 -2 15 12 80 14 73 2 -2 -3 0 -12 6 -20 7
-13 9 -13 9 -1 0 11 6 9 23 -6 33 -31 66 -45 132 -59 57 -12 63 -11 118 13 66
30 122 88 137 142 5 20 10 116 10 214 l0 177 -160 0 c-150 0 -160 1 -160 19 0
58 -63 136 -118 147 l-32 7 0 173 0 174 53 1 c28 0 80 0 115 -1 57 -1 80 10
50 24 -7 4 2 4 21 1 37 -6 63 9 54 31 -3 8 0 14 7 14 7 0 10 6 7 13 -3 7 4 19
15 26 20 12 20 13 -7 27 -15 8 -42 14 -60 14 -18 0 -38 7 -45 15 -9 11 -17 12
-32 4 -11 -6 -31 -7 -46 -3 -15 4 -47 8 -72 9 -25 0 -52 4 -60 8 -8 3 -23 2
-33 -4z m-134 -166 c-7 -2 -21 -2 -30 0 -10 3 -4 5 12 5 17 0 24 -2 18 -5z
m360 0 c-7 -2 -21 -2 -30 0 -10 3 -4 5 12 5 17 0 24 -2 18 -5z m-423 -88 c5 3
11 1 15 -5 4 -6 -6 -10 -24 -10 -17 0 -31 5 -31 11 0 5 5 7 10 4 6 -3 10 0 11
7 0 10 2 10 6 0 2 -6 9 -10 13 -7z m-414 -14 c-4 -5 0 -12 6 -14 7 -3 -25 -5
-72 -5 -47 0 -79 2 -72 5 6 2 10 9 6 14 -3 5 26 9 66 9 40 0 69 -4 66 -9z
m364 -43 c0 -12 -48 -10 -55 2 -4 6 5 10 24 8 17 -1 31 -6 31 -10z m130 3 c0
-5 -11 -8 -25 -8 -14 0 -25 2 -25 6 0 4 11 8 25 9 14 1 25 -2 25 -7z m-80 -46
c0 -26 -4 -35 -16 -35 -12 0 -15 6 -9 23 3 12 7 28 7 35 3 29 18 9 18 -23z
m70 -10 c0 -16 -6 -25 -15 -25 -8 0 -15 9 -15 21 0 11 5 17 10 14 6 -3 10 -1
10 4 0 6 2 11 5 11 3 0 5 -11 5 -25z m-130 -11 c0 -8 5 -14 12 -14 6 0 9 -2 6
-5 -2 -3 -22 1 -44 9 -21 8 -31 15 -21 15 9 1 17 5 17 11 0 5 7 7 15 4 8 -4
15 -12 15 -20z m160 10 c0 -8 -5 -12 -10 -9 -6 4 -8 11 -5 16 9 14 15 11 15
-7z m-203 -30 c-3 -3 -12 -4 -19 -1 -8 3 -5 6 6 6 11 1 17 -2 13 -5z m143 -8
c6 -8 19 -12 27 -9 11 4 14 2 9 -5 -7 -12 -100 -11 -112 1 -4 3 10 5 30 4 35
-3 49 6 24 16 -8 4 -9 6 -2 6 6 1 17 -5 24 -13z m-90 -17 c0 -8 -47 -5 -56 4
-3 3 8 5 25 5 17 -1 31 -4 31 -9z m67 -25 c-3 -3 -12 -4 -19 -1 -8 3 -5 6 6 6
11 1 17 -2 13 -5z m60 -16 c-3 -8 -6 -5 -6 6 -1 11 2 17 5 13 3 -3 4 -12 1
-19z m-61 -25 c-9 -9 -56 -12 -56 -4 0 5 14 8 31 9 17 0 28 -2 25 -5z m-430
-15 c11 14 11 11 2 -15 -15 -40 -21 -41 -36 -8 -16 36 -15 42 5 23 15 -16 17
-16 29 0z m74 -35 c0 -7 -10 -13 -22 -12 -21 0 -22 1 -3 8 18 7 18 8 1 18 -11
6 -16 15 -11 22 8 14 34 -14 35 -36z m-158 2 c4 -16 1 -24 -6 -22 -6 2 -12 16
-14 31 -4 35 14 26 20 -9z m403 26 c3 -5 1 -12 -5 -16 -5 -3 -10 1 -10 9 0 18
6 21 15 7z m-445 -16 c0 -8 -4 -15 -9 -15 -5 0 -11 7 -15 15 -3 9 0 15 9 15 8
0 15 -7 15 -15z m564 0 c3 -8 3 -15 0 -15 -3 0 -12 7 -20 15 -13 13 -13 15 -1
15 8 0 17 -7 21 -15z m-594 -10 c6 -8 10 -22 8 -32 -3 -14 -8 -11 -21 15 -18
32 -9 44 13 17z m528 -2 c-10 -2 -26 -2 -35 0 -10 3 -2 5 17 5 19 0 27 -2 18
-5z m115 0 c-7 -2 -19 -2 -25 0 -7 3 -2 5 12 5 14 0 19 -2 13 -5z m-139 -31
c-14 -13 -17 -13 -26 -1 -8 11 -9 10 -4 -3 4 -14 0 -18 -19 -18 -17 0 -25 5
-24 18 0 10 3 12 6 5 4 -10 7 -10 17 0 7 6 24 13 39 13 24 2 25 0 11 -14z m82
2 c18 -14 18 -14 -6 -3 -31 14 -36 19 -24 19 6 0 19 -7 30 -16z m77 7 c4 0 7
-9 7 -18 -1 -17 -1 -17 -11 0 -5 9 -15 17 -21 17 -7 0 -6 -5 2 -15 17 -20 -4
-20 -24 1 -9 8 -16 17 -16 19 0 3 28 1 63 -4z m-128 -11 c-3 -5 -12 -10 -18
-10 -7 0 -6 4 3 10 19 12 23 12 15 0z m-25 -36 c0 -2 -7 -4 -15 -4 -8 0 -15 4
-15 10 0 5 7 7 15 4 8 -4 15 -8 15 -10z m17 -16 c-3 -7 -5 -2 -5 12 0 14 2 19
5 13 2 -7 2 -19 0 -25z m70 0 c-3 -7 -5 -2 -5 12 0 14 2 19 5 13 2 -7 2 -19 0
-25z m-134 15 c-7 -2 -19 -2 -25 0 -7 3 -2 5 12 5 14 0 19 -2 13 -5z m190 0
c-7 -2 -21 -2 -30 0 -10 3 -4 5 12 5 17 0 24 -2 18 -5z m-175 -20 c-10 -2 -26
-2 -35 0 -10 3 -2 5 17 5 19 0 27 -2 18 -5z m283 -38 c5 4 9 2 9 -4 0 -5 -6
-11 -12 -14 -19 -6 -49 4 -42 14 3 5 10 7 15 4 5 -4 10 4 10 17 l2 23 4 -23
c2 -12 9 -20 14 -17z m100 0 c5 4 9 2 9 -4 0 -5 -6 -11 -12 -14 -17 -5 -38 3
-38 15 0 5 5 6 10 3 6 -3 11 4 11 17 l2 23 4 -23 c2 -12 9 -20 14 -17z m-387
-106 c3 -34 6 -149 6 -255 0 -153 -3 -194 -13 -194 -34 0 -37 22 -37 267 0
230 1 243 19 243 15 0 19 -11 25 -61z m106 -204 l0 -265 -25 0 -25 0 0 265 0
265 25 0 25 0 0 -265z m234 223 c20 -14 -15 -28 -36 -15 -15 10 -16 13 -3 15
8 2 16 13 16 25 1 21 2 21 6 2 3 -11 10 -23 17 -27z m396 -17 c0 -9 -4 -23
-10 -31 -5 -8 -5 -19 -1 -25 10 -13 9 -221 -1 -231 -5 -4 -8 -18 -8 -31 0 -15
-9 -27 -25 -35 -14 -6 -25 -17 -25 -24 0 -18 -38 -37 -57 -30 -9 4 -24 -1 -34
-10 -18 -16 -20 -16 -37 -1 -11 10 -26 14 -40 10 -16 -4 -29 3 -49 26 -15 17
-33 31 -40 31 -8 0 -13 12 -13 29 0 16 -6 34 -14 40 -11 9 -12 20 -5 43 5 17
5 38 0 46 -5 10 -4 23 2 34 9 14 9 23 -1 38 -11 18 -8 22 14 19 4 0 10 5 15
12 14 24 23 0 9 -26 -12 -22 -12 -28 3 -42 13 -13 20 -14 29 -5 16 16 55 15
61 0 2 -7 8 -10 12 -6 10 9 -13 38 -30 38 -6 0 -20 9 -30 20 -10 11 -15 20
-10 20 4 0 2 7 -5 15 -15 18 -7 31 12 19 13 -8 18 -10 37 -13 5 0 15 -17 21
-36 6 -19 16 -35 21 -35 13 0 11 27 -3 50 -10 16 -10 24 1 41 11 18 11 23 -1
30 -18 12 -28 11 -28 -1 0 -5 -11 -10 -25 -10 -28 0 -29 3 -15 29 8 16 22 18
115 17 58 -1 110 1 117 5 16 10 38 -1 38 -20z m-520 -252 c1 -167 -1 -179 -19
-188 -11 -6 -22 -11 -25 -11 -3 0 -6 107 -6 237 l0 236 24 -47 c23 -45 24 -59
26 -227z m98 42 c-2 -53 -8 -105 -12 -116 -5 -13 -3 -12 7 4 13 21 14 22 19 5
3 -11 9 -27 13 -36 6 -15 1 -18 -31 -18 l-39 0 -3 125 c-1 69 0 130 3 134 3 5
14 7 26 4 20 -5 21 -11 17 -102z"/>
<path d="M2420 2680 c-12 -7 -12 -12 0 -35 10 -19 11 -28 2 -37 -15 -15 -16
-52 -2 -43 6 4 17 22 25 42 9 20 20 33 27 31 7 -3 23 8 36 23 13 16 19 29 13
29 -5 0 -13 -4 -16 -10 -3 -5 -17 -10 -31 -10 -13 0 -24 5 -24 10 0 12 -10 13
-30 0z"/>
<path d="M2518 2643 c-8 -10 -19 -30 -26 -45 -6 -16 -18 -28 -26 -28 -18 0
-41 -28 -31 -38 4 -4 10 -1 12 6 6 15 45 16 61 0 10 -9 16 -8 29 5 13 13 15
20 5 29 -15 15 -16 54 -2 63 12 8 13 25 2 25 -5 0 -15 -8 -24 -17z"/>
<path d="M2406 2527 c3 -10 9 -15 12 -12 3 3 0 11 -7 18 -10 9 -11 8 -5 -6z"/>
<path d="M2254 2498 c-3 -5 0 -16 7 -24 9 -11 9 -20 0 -41 -6 -14 -9 -28 -6
-31 9 -9 40 13 41 29 2 28 17 49 34 49 10 0 22 6 28 13 8 9 -2 12 -44 13 -30
1 -57 -3 -60 -8z"/>
<path d="M2433 2495 c2 -5 14 -12 27 -15 21 -5 29 -15 50 -59 13 -30 30 -24
24 8 -4 17 -2 37 4 44 6 7 8 17 4 23 -9 14 -113 13 -109 -1z"/>
<path d="M2373 2479 c-7 -7 -13 -18 -13 -25 0 -6 -16 -24 -35 -38 -45 -34 -46
-61 -4 -70 18 -3 37 -14 44 -23 11 -15 13 -15 20 6 4 14 2 33 -6 47 -10 19
-10 29 0 48 17 30 12 73 -6 55z"/>
<path d="M2410 2463 c0 -16 4 -33 10 -39 6 -6 5 -23 -2 -47 -14 -46 1 -70 27
-43 9 9 25 16 35 16 10 0 21 3 23 8 9 14 -12 50 -32 57 -12 3 -24 17 -27 30
-3 13 -12 29 -20 36 -11 9 -14 6 -14 -18z"/>
<path d="M2118 3433 c28 -2 76 -2 105 0 28 2 5 3 -53 3 -58 0 -81 -1 -52 -3z"/>
<path d="M1978 3423 c12 -2 30 -2 40 0 9 3 -1 5 -23 4 -22 0 -30 -2 -17 -4z"/>
<path d="M1918 3413 c7 -3 16 -2 19 1 4 3 -2 6 -13 5 -11 0 -14 -3 -6 -6z"/>
<path d="M2072 3411 c4 -13 18 -16 19 -4 0 4 -5 9 -11 12 -7 2 -11 -2 -8 -8z"/>
<path d="M2122 3408 c5 -13 52 -19 76 -11 27 11 9 23 -34 23 -32 0 -44 -4 -42
-12z"/>
<path d="M2232 3411 c4 -13 18 -16 19 -4 0 4 -5 9 -11 12 -7 2 -11 -2 -8 -8z"/>
<path d="M2398 3413 c7 -3 16 -2 19 1 4 3 -2 6 -13 5 -11 0 -14 -3 -6 -6z"/>
<path d="M2860 3413 c0 -7 -7 -13 -17 -13 -9 0 -13 -3 -10 -7 4 -3 23 -6 42
-5 19 1 37 -3 40 -8 4 -6 -16 -10 -50 -10 -35 0 -54 4 -50 10 3 6 -4 10 -17 9
-13 0 -17 -3 -10 -6 6 -2 12 -9 12 -14 0 -14 -28 -11 -33 4 -3 6 -6 2 -6 -10
-1 -14 5 -23 14 -23 8 0 14 -6 13 -12 -2 -7 5 -12 15 -12 9 1 17 -2 17 -7 0
-5 -4 -9 -10 -9 -5 0 -10 -4 -10 -10 0 -6 28 -10 65 -10 37 0 65 4 65 10 0 6
-4 10 -10 10 -5 0 -10 5 -10 11 0 5 4 7 10 4 15 -10 50 14 50 34 0 15 -5 18
-22 13 -17 -4 -20 -2 -15 11 4 12 -2 17 -26 23 -18 3 -35 12 -39 18 -6 8 -8 7
-8 -1z"/>
<path d="M1435 3401 c-18 -7 -17 -8 6 -13 14 -2 34 -1 45 3 10 4 14 8 7 8 -6
1 -17 3 -25 5 -7 3 -22 1 -33 -3z"/>
<path d="M1868 3403 c7 -3 16 -2 19 1 4 3 -2 6 -13 5 -11 0 -14 -3 -6 -6z"/>
<path d="M1970 3402 c0 -22 29 -32 90 -30 l65 2 -70 6 c-38 4 -58 7 -42 8 40
3 33 22 -8 22 -19 0 -35 -4 -35 -8z"/>
<path d="M2438 3403 c7 -3 16 -2 19 1 4 3 -2 6 -13 5 -11 0 -14 -3 -6 -6z"/>
<path d="M1362 3378 c-7 -7 -12 -16 -12 -20 0 -17 35 -48 54 -48 20 0 20 0 0
-15 -17 -13 -12 -14 56 -14 66 0 73 1 57 13 -12 9 -14 16 -8 21 6 3 11 1 11
-5 0 -6 11 0 25 14 32 32 32 45 -2 38 -21 -4 -25 -2 -20 12 4 9 2 16 -3 16 -6
0 -10 -4 -10 -9 0 -5 -23 -11 -50 -13 -35 -2 -50 1 -50 10 0 15 -32 16 -48 0z
m38 -8 c0 -5 -9 -10 -21 -10 -11 0 -17 5 -14 10 3 6 13 10 21 10 8 0 14 -4 14
-10z"/>
<path d="M2227 3373 c18 -2 50 -2 70 0 21 2 7 4 -32 4 -38 0 -55 -2 -38 -4z"/>
<path d="M1948 3363 c6 -2 18 -2 25 0 6 3 1 5 -13 5 -14 0 -19 -2 -12 -5z"/>
<path d="M2348 3363 c6 -2 18 -2 25 0 6 3 1 5 -13 5 -14 0 -19 -2 -12 -5z"/>
<path d="M2408 3353 c7 -3 16 -2 19 1 4 3 -2 6 -13 5 -11 0 -14 -3 -6 -6z"/>
<path d="M2423 3237 c1 -6 -8 -16 -20 -22 -13 -5 -23 -15 -23 -22 0 -16 -12
-17 -28 -1 -6 6 -15 9 -18 5 -9 -9 15 -37 32 -37 8 0 14 -10 14 -22 0 -22 1
-22 18 5 10 15 23 24 28 20 5 -5 0 3 -11 17 -11 14 -14 20 -6 13 8 -7 23 -8
42 -3 19 6 27 5 23 -1 -3 -6 -8 -25 -11 -42 -3 -18 -9 -37 -14 -43 -5 -6 -5
-15 -1 -19 4 -5 1 -5 -5 -1 -7 4 -13 2 -13 -4 0 -6 -7 -4 -16 5 -9 9 -23 14
-30 11 -9 -4 -14 2 -14 17 0 18 -2 19 -10 7 -5 -8 -10 -10 -10 -5 0 6 -15 17
-32 25 -18 7 -37 16 -43 18 -5 3 -4 -2 4 -12 12 -14 12 -16 -2 -10 -16 6 -32
35 -19 33 22 -4 32 4 32 24 -1 20 -2 21 -14 4 -7 -9 -20 -15 -27 -12 -10 4
-14 -4 -15 -24 -1 -20 3 -28 12 -24 8 3 19 -6 25 -21 7 -14 18 -26 25 -26 20
0 28 -21 13 -31 -8 -5 -27 -6 -44 -3 -26 6 -28 5 -17 -9 9 -10 9 -16 2 -19 -6
-2 -1 -11 10 -21 18 -15 21 -15 26 -2 4 8 18 15 34 15 16 0 30 6 33 13 3 8 12
5 29 -11 13 -12 28 -19 33 -15 4 5 5 2 1 -4 -4 -7 -14 -13 -22 -13 -8 0 -14
-4 -14 -8 0 -5 12 -7 28 -4 25 3 27 1 27 -34 0 -30 5 -41 23 -50 l23 -11 -23
-7 c-18 -5 -20 -8 -9 -15 7 -5 11 -13 7 -19 -3 -5 5 -12 19 -14 14 -3 25 -2
26 1 5 36 7 48 13 62 4 9 0 21 -9 29 -22 18 -19 50 5 50 33 0 44 36 30 95 -12
48 -11 55 8 81 11 16 23 40 27 52 6 21 5 23 -13 13 -11 -6 -22 -7 -26 -4 -3 3
-6 1 -6 -5 0 -6 5 -14 10 -17 13 -8 13 -35 -1 -35 -6 0 -9 6 -7 12 7 20 -37
48 -69 44 -21 -2 -30 1 -30 11 0 10 7 13 24 8 20 -5 22 -3 12 8 -16 16 -49 20
-46 4z m98 -134 c3 -44 9 -85 13 -92 5 -7 -1 -11 -16 -11 -18 0 -20 -2 -8 -10
13 -8 13 -10 -2 -10 -9 0 -20 -5 -23 -10 -9 -15 5 -71 16 -64 12 7 11 -3 -1
-27 -6 -10 -16 -19 -23 -19 -8 0 -7 3 2 9 19 12 6 41 -19 41 -18 0 -20 4 -14
39 4 24 2 41 -5 45 -6 4 -9 11 -6 16 3 4 -3 7 -12 5 -19 -3 -43 12 -43 25 0 4
7 11 16 14 11 4 15 2 11 -7 -3 -8 1 -14 9 -14 7 0 11 4 8 8 -2 4 -1 10 4 13 5
3 15 -10 22 -29 8 -19 20 -35 27 -35 9 0 7 7 -7 22 -22 24 -21 63 3 83 7 6 11
23 9 38 -4 37 5 60 21 55 7 -3 14 -34 18 -85z m-206 17 c-3 -6 4 -14 16 -18
16 -6 19 -11 10 -16 -13 -9 -54 27 -44 38 10 10 25 7 18 -4z m58 -63 c-3 -5
-11 -6 -19 -3 -8 3 -14 1 -14 -3 0 -5 -14 -14 -31 -20 -39 -13 -42 -14 -34 -1
3 6 15 10 26 10 11 0 22 7 25 15 3 8 16 14 29 13 13 -1 21 -6 18 -11z"/>
<path d="M2860 3231 c-119 -7 -112 -21 10 -21 57 0 81 4 90 15 7 8 11 14 9 13
-2 -1 -51 -4 -109 -7z"/>
<path d="M2780 3185 c0 -7 7 -18 14 -22 10 -5 16 -30 19 -73 l3 -65 2 68 c2
56 5 67 20 68 9 1 31 2 47 4 52 4 55 0 55 -95 l0 -88 -55 13 c-30 7 -55 10
-55 6 0 -3 -5 1 -10 9 -5 8 -10 10 -10 4 0 -6 -21 -11 -47 -12 -27 -1 -65 -4
-85 -8 l-38 -6 0 -50 0 -50 32 6 c18 3 56 9 85 13 l53 6 1 -39 2 -39 7 40 c5
30 8 34 10 15 2 -18 4 -20 7 -7 5 19 38 22 77 7 23 -8 26 -15 26 -59 l0 -50
38 13 c31 11 40 21 59 67 25 63 20 74 -48 104 l-40 19 2 105 c1 77 -2 106 -11
109 -8 3 -10 0 -6 -7 5 -8 -15 -11 -69 -11 -48 0 -74 4 -70 10 3 6 1 10 -4 10
-6 0 -11 -7 -11 -15z m10 -229 c0 -13 6 -27 13 -29 6 -3 2 -6 -10 -6 -19 -1
-23 4 -23 29 0 17 5 30 10 30 6 0 10 -11 10 -24z m72 12 c-7 -7 -12 -20 -12
-30 0 -10 -4 -18 -9 -18 -4 0 -8 13 -7 30 1 23 6 30 21 30 15 0 16 -3 7 -12z
m-145 -14 c5 -13 7 -13 14 -2 7 10 9 10 9 -3 0 -9 -3 -19 -7 -22 -7 -8 -43 21
-43 35 0 14 20 9 27 -8z m219 5 c3 -6 2 -15 -4 -21 -6 -6 -8 -18 -5 -27 4 -14
3 -14 -10 1 -10 13 -16 15 -25 6 -9 -9 -12 -8 -12 4 0 29 12 48 30 48 11 0 22
-5 26 -11z m70 -45 c-3 -9 -6 -23 -6 -32 -1 -16 -2 -15 -14 1 -7 9 -22 17 -32
17 -18 1 -18 1 -1 11 9 5 22 7 29 3 7 -4 8 -3 4 4 -4 7 -1 12 9 12 12 0 15 -5
11 -16z"/>
<path d="M2415 3110 c-3 -5 -1 -10 4 -10 6 0 11 5 11 10 0 6 -2 10 -4 10 -3 0
-8 -4 -11 -10z"/>
<path d="M2360 2958 c0 -10 5 -18 10 -18 6 0 10 -4 10 -10 0 -5 -7 -10 -16
-10 -8 0 -13 -4 -9 -10 7 -12 35 -1 35 14 0 7 -7 21 -15 32 -13 17 -14 17 -15
2z"/>
<path d="M2395 2961 c-6 -11 13 -26 22 -17 4 3 1 6 -6 6 -7 0 -9 5 -6 10 3 6
4 10 1 10 -3 0 -7 -4 -11 -9z"/>
<path d="M2325 2930 c3 -6 -1 -13 -9 -16 -9 -3 -16 -10 -16 -16 0 -5 4 -7 9
-3 5 3 16 -2 25 -10 10 -11 17 -12 22 -4 3 6 1 14 -5 18 -6 4 -9 15 -5 24 4
12 1 17 -11 17 -9 0 -13 -5 -10 -10z"/>
<path d="M2403 2918 c3 -9 1 -19 -6 -22 -9 -3 -9 -5 0 -5 18 -1 23 13 11 29
-8 12 -9 12 -5 -2z"/>
<path d="M1531 2840 l-1 -65 -58 -27 c-31 -15 -84 -39 -117 -53 -33 -14 -62
-31 -66 -36 -11 -19 7 -85 31 -109 18 -18 24 -20 31 -9 5 8 6 21 3 29 -3 8 -6
19 -7 24 -1 5 40 26 91 47 l92 38 0 -130 0 -129 -75 0 c-63 0 -77 -3 -81 -17
-3 -10 -11 -28 -17 -40 -6 -13 -7 -26 -4 -30 4 -3 7 1 7 10 0 14 13 17 88 19
l87 2 -77 3 c-43 2 -78 8 -78 13 0 10 8 11 105 11 l60 1 -3 145 -4 145 37 31
c34 30 36 34 29 76 -6 36 -12 46 -35 54 -18 7 -29 20 -32 37 -2 14 -5 -4 -6
-40z"/>
<path d="M2760 2848 c-33 -12 -40 -25 -40 -74 0 -39 3 -44 50 -74 28 -18 76
-43 108 -56 l57 -23 6 -98 5 -98 2 93 c2 75 5 92 17 92 13 0 15 -7 9 -34 -9
-50 3 -61 31 -28 28 34 42 96 26 116 -7 8 -50 29 -97 48 -47 18 -93 40 -102
49 -9 8 -21 15 -27 15 -5 -1 -12 18 -15 40 -5 39 -6 41 -30 32z"/>
<path d="M2812 2810 c0 -14 2 -19 5 -12 2 6 2 18 0 25 -3 6 -5 1 -5 -13z"/>
<path d="M2942 2745 c0 -16 2 -22 5 -12 2 9 2 23 0 30 -3 6 -5 -1 -5 -18z"/>
<path d="M2814 2545 c0 -66 1 -92 3 -57 2 34 2 88 0 120 -2 31 -3 3 -3 -63z"/>
<path d="M1692 2410 c0 -14 2 -19 5 -12 2 6 2 18 0 25 -3 6 -5 1 -5 -13z"/>
<path d="M2787 2413 c-22 -21 -2 -28 80 -26 49 1 90 2 92 3 2 0 -2 7 -9 15 -9
11 -33 15 -85 15 -39 0 -75 -3 -78 -7z"/>
<path d="M1540 2370 c0 -6 5 -10 10 -10 6 0 10 -12 10 -26 l0 -25 -102 1
c-114 1 -148 -5 -148 -27 0 -11 6 -12 23 -6 12 4 37 7 55 6 37 -3 101 -3 154
0 21 0 42 -3 48 -9 7 -7 -28 -9 -103 -8 -61 1 -127 0 -144 -3 -31 -5 -33 -8
-33 -45 0 -39 1 -40 28 -32 15 4 36 7 47 6 33 -2 108 -2 140 0 17 1 42 -2 58
-6 l27 -8 0 60 c0 51 -3 60 -20 65 -14 4 -20 14 -20 35 0 17 -6 32 -15 36 -8
3 -15 1 -15 -4z m56 -143 c14 -14 -4 -17 -32 -7 -21 8 -40 8 -70 0 -32 -9 -51
-9 -77 -1 -24 8 -42 9 -61 1 -33 -12 -36 -12 -36 -1 0 5 8 11 18 13 29 7 251
2 258 -5z"/>
<path d="M2757 2363 c-4 -3 -7 -17 -7 -29 0 -13 -9 -28 -20 -34 -15 -8 -20
-21 -20 -53 0 -59 10 -70 46 -57 21 8 40 8 70 0 33 -9 51 -9 78 0 27 9 45 9
67 1 30 -10 49 -8 49 7 0 4 -19 13 -42 20 -33 10 -51 10 -76 1 -25 -9 -43 -9
-71 0 -25 7 -48 8 -71 1 -33 -10 -50 -6 -37 7 11 10 247 12 274 2 19 -7 23 -5
23 10 0 25 -36 30 -185 27 -113 -3 -118 -2 -85 12 28 12 44 12 77 3 30 -8 50
-8 70 0 25 9 73 6 109 -8 8 -3 14 1 14 10 0 8 -9 17 -19 20 -12 3 -21 15 -23
33 l-3 29 -88 1 -87 0 85 -3 c83 -4 85 -4 85 -28 0 -25 0 -25 -105 -25 -104 0
-105 0 -105 24 0 15 7 26 18 29 14 4 14 5 1 6 -9 0 -19 -2 -22 -6z"/>
<path d="M2155 2297 c-4 -10 -5 -31 -2 -46 4 -21 2 -31 -9 -35 -9 -3 -12 -1
-9 4 3 6 1 10 -5 10 -6 0 -9 4 -6 8 2 4 -12 6 -32 4 l-36 -5 23 -18 c13 -11
37 -19 55 -20 94 -3 154 11 141 32 -4 5 -17 9 -31 9 -13 0 -24 5 -24 11 0 5
-5 7 -10 4 -6 -4 -8 -11 -5 -16 3 -5 -1 -6 -10 -3 -9 4 -13 13 -10 23 3 9 -1
26 -9 37 -14 18 -15 18 -21 1z m-35 -76 c0 -5 -9 -7 -20 -4 -11 3 -20 7 -20 9
0 2 9 4 20 4 11 0 20 -4 20 -9z m140 5 c0 -2 -9 -6 -20 -9 -11 -3 -18 -1 -14
4 5 9 34 13 34 5z"/>
<path d="M2111 2274 c0 -11 3 -14 6 -6 3 7 2 16 -1 19 -3 4 -6 -2 -5 -13z"/>
<path d="M2358 2193 c7 -3 16 -2 19 1 4 3 -2 6 -13 5 -11 0 -14 -3 -6 -6z"/>
<path d="M2308 2183 c7 -3 16 -2 19 1 4 3 -2 6 -13 5 -11 0 -14 -3 -6 -6z"/>
<path d="M2073 2173 c9 -2 23 -2 30 0 6 3 -1 5 -18 5 -16 0 -22 -2 -12 -5z"/>
<path d="M2233 2173 c9 -2 25 -2 35 0 9 3 1 5 -18 5 -19 0 -27 -2 -17 -5z"/>
<path d="M1034 1853 c31 -60 135 -206 215 -303 202 -243 477 -459 766 -603
958 -474 2118 -243 2818 561 81 92 223 286 253 345 l15 27 -2041 0 -2041 0 15
-27z"/>
</g>
</svg>
